<?xml version="1.0" encoding="UTF-8" standalone="no"?>
<!DOCTYPE svg PUBLIC "-//W3C//DTD SVG 1.1//EN" "http://www.w3.org/Graphics/SVG/1.1/DTD/svg11.dtd">
<svg width="100%" height="100%" viewBox="0 0 522 197" version="1.1" xmlns="http://www.w3.org/2000/svg" xmlns:xlink="http://www.w3.org/1999/xlink" xml:space="preserve" xmlns:serif="http://www.serif.com/" style="fill-rule:evenodd;clip-rule:evenodd;stroke-linejoin:round;stroke-miterlimit:1.41421;">
    <g transform="matrix(1,0,0,1,-29,-202)">
        <path d="M385.268,299.883C385.268,352.577 342.544,395.297 289.85,395.297C260.361,395.297 234,381.914 216.503,360.9C229.491,362.504 248.03,360.983 274.405,352.974C313.25,341.176 346.176,312.708 365.274,287.395C364.993,285.472 364.653,283.573 364.237,281.684C342.305,303.917 308.324,327.269 274.273,335.726C218.985,349.474 202.633,333.143 198.248,325.758L197.724,324.744C195.589,316.811 194.429,308.482 194.429,299.883C194.429,247.182 237.149,204.462 289.85,204.462C342.544,204.462 385.268,247.182 385.268,299.883" style="fill:rgb(238,50,41);fill-rule:nonzero;"/>
        <path d="M479.002,210.298L438.643,277.053L438.643,210.298L361.122,210.298C387.455,231.278 404.351,263.596 404.351,299.883C404.351,336.166 387.455,368.482 361.124,389.461L438.943,389.461L548.498,210.298L479.002,210.298Z" style="fill:rgb(96,102,108);fill-rule:nonzero;"/>
        <path d="M218.579,389.461L140.471,389.461L100.109,322.706L100.109,389.461L31.36,389.461L31.36,210.298L100.694,210.298L141.057,277.053L141.057,210.298L218.581,210.298C192.248,231.278 175.351,263.596 175.351,299.883C175.352,336.166 192.246,368.481 218.579,389.461" style="fill:rgb(96,102,108);fill-rule:nonzero;"/>
    </g>
</svg>
